<svg width="58" height="50" viewBox="0 0 58 50" fill="none" xmlns="http://www.w3.org/2000/svg">
<path d="M53.9398 28.5048L52.4378 22.4969C52.8484 22.4097 53.1565 22.0454 53.1565 21.6089V20.6402C53.1565 18.537 51.4454 16.826 49.3424 16.826H42.5011V14.8281C42.5011 13.7932 41.6592 12.9513 40.6242 12.9513H27.9034L35.6337 9.85913C36.0994 9.67289 36.3259 9.14432 36.1397 8.67862C35.9534 8.21304 35.4252 7.98636 34.9592 8.17271L28.6297 10.7044C30.5584 9.46695 32.4666 8.10497 33.1931 7.1525C34.6074 5.2982 34.2492 2.63903 32.3949 1.22472C30.5406 -0.189712 27.8815 0.168597 26.4671 2.0229C25.4338 3.37797 24.0703 7.18546 23.1879 9.86853C22.3054 7.18569 20.942 3.37797 19.9086 2.0229C18.4944 0.168597 15.8351 -0.189486 13.9808 1.22472C12.1265 2.63892 11.7684 5.29808 13.1827 7.1525C13.9091 8.10508 15.8172 9.46695 17.7461 10.7044L11.4166 8.17271C10.9507 7.98614 10.4223 8.21292 10.2361 8.67862C10.0497 9.14432 10.2763 9.67289 10.742 9.85913L18.4723 12.9513H5.75152C4.71658 12.9513 3.87467 13.7932 3.87467 14.8281V31.2958C3.87467 31.7973 4.28124 32.204 4.78285 32.204C5.28434 32.204 5.69102 31.7974 5.69102 31.2958V14.8281C5.69102 14.7947 5.7181 14.7676 5.75152 14.7676H40.6241C40.6575 14.7676 40.6846 14.7947 40.6846 14.8281V31.296C40.6846 31.7975 41.0912 32.2042 41.5928 32.2042C42.0943 32.2042 42.501 31.7976 42.501 31.296V30.2665H53.2135C53.2145 30.2665 53.2153 30.2667 53.2164 30.2667C53.2174 30.2667 53.2183 30.2666 53.2193 30.2666C54.5374 30.2676 55.6567 31.1329 56.0409 32.3251H53.217C52.7155 32.3251 52.3089 32.7316 52.3089 33.2332V35.1706C52.3089 36.7396 53.5853 38.0161 55.1544 38.0161H56.1836V42.0119H53.809C53.029 39.7596 50.8879 38.1371 48.3736 38.1371C45.8593 38.1371 43.7181 39.7595 42.9381 42.0119H42.5009V35.1705C42.5009 34.669 42.0943 34.2623 41.5927 34.2623C41.0912 34.2623 40.6845 34.6689 40.6845 35.1705V42.0117H21.8426C21.0625 39.7595 18.9214 38.137 16.4071 38.137C13.8928 38.137 11.7516 39.7594 10.9716 42.0117H5.75152C5.7181 42.0117 5.69102 41.9847 5.69102 41.9513V39.9533H9.6263C10.1278 39.9533 10.5345 39.5467 10.5345 39.0451C10.5345 38.5435 10.1279 38.137 9.6263 38.137H0.908176C0.40668 38.137 0 38.5435 0 39.0451C0 39.5467 0.406566 39.9533 0.908176 39.9533H3.87479V41.9513C3.87479 42.9862 4.71669 43.8281 5.75163 43.8281H10.6572C10.6569 43.8483 10.6556 43.8683 10.6556 43.8886C10.6556 47.0599 13.2358 49.6401 16.4071 49.6401C19.5784 49.6401 22.1586 47.0599 22.1586 43.8886C22.1586 43.8682 22.1572 43.8483 22.157 43.8281H42.6235C42.6233 43.8483 42.622 43.8683 42.622 43.8886C42.622 47.0599 45.2022 49.6401 48.3735 49.6401C51.5448 49.6401 54.125 47.0599 54.125 43.8886C54.125 43.8682 54.1236 43.8483 54.1234 43.8281H57.0917C57.5932 43.8281 57.9999 43.4215 57.9999 42.9199V33.2331C58 30.8413 56.2354 28.8541 53.9398 28.5048ZM19.5863 9.71379C16.004 7.4877 14.9415 6.46352 14.6269 6.05095C13.82 4.99302 14.0243 3.47584 15.0824 2.66894C15.5185 2.33635 16.0326 2.1756 16.5429 2.1756C17.2704 2.1756 17.9902 2.50253 18.4645 3.12444C19.343 4.27629 20.7188 8.15311 21.6271 10.9467C21.0141 10.5858 20.3095 10.1634 19.5863 9.71379ZM24.7489 10.9466C25.6572 8.15311 27.033 4.2764 27.9114 3.12433C28.7183 2.0664 30.2354 1.86215 31.2934 2.66894C32.3514 3.47584 32.5557 4.99302 31.7489 6.05095C31.4343 6.46341 30.3717 7.4877 26.7897 9.71367C26.0666 10.1632 25.362 10.5857 24.7489 10.9466ZM42.5011 18.6422H49.3424C50.444 18.6422 51.3403 19.5384 51.3403 20.6401V20.7006H42.5011V18.6422ZM42.5011 28.4502V22.5169H50.5707L52.054 28.4502H42.5011ZM16.4071 47.8239C14.2372 47.8239 12.4718 46.0585 12.4718 43.8886C12.4718 41.7187 14.2372 39.9533 16.4071 39.9533C18.577 39.9533 20.3424 41.7187 20.3424 43.8886C20.3424 46.0585 18.577 47.8239 16.4071 47.8239ZM48.3737 47.8239C46.2038 47.8239 44.4384 46.0585 44.4384 43.8886C44.4384 41.7187 46.2038 39.9533 48.3737 39.9533C50.5436 39.9533 52.309 41.7187 52.309 43.8886C52.309 46.0585 50.5436 47.8239 48.3737 47.8239ZM56.1838 36.1996H55.1545C54.5869 36.1996 54.1252 35.7379 54.1252 35.1703V34.1411H56.1836V36.1996H56.1838Z" fill="#7AC751"/>
</svg>
